<svg width="1218" height="927" viewBox="0 0 1218 927" fill="none" xmlns="http://www.w3.org/2000/svg">
<path d="M1072.73 717.815C1019.36 740.967 897.548 758.193 837.271 641.885C761.925 496.5 776.834 467.348 680.163 472.982C583.491 478.615 552.066 585.04 393.707 496.434C235.348 407.828 387.952 202.377 276.044 208.721C164.136 215.064 223.451 314.6 137.481 285.635C68.7042 262.463 60.5911 210.959 65.1316 188.103" stroke="white" stroke-opacity="0.05" stroke-width="2"/>
<path d="M1125.87 705.041C1072.71 727.884 951.26 744.621 890.77 628.827C815.157 484.085 829.936 455.157 733.528 460.451C637.12 465.746 606.11 571.428 447.875 482.859C289.639 394.29 441.207 190.564 329.603 196.516C218 202.468 277.478 301.589 191.635 272.528C122.96 249.279 114.705 198.062 119.162 175.359" stroke="white" stroke-opacity="0.05" stroke-width="2"/>
<path d="M1180.08 691.476C1126.71 714.627 1004.9 731.853 944.622 615.545C869.276 470.16 884.185 441.008 787.514 446.642C690.842 452.275 659.417 558.7 501.058 470.094C342.699 381.488 495.302 176.037 383.394 182.381C271.486 188.724 330.802 288.261 244.831 259.295C176.055 236.123 167.942 184.619 172.482 161.764" stroke="white" stroke-opacity="0.05" stroke-width="2"/>
</svg>
